# xmcd
#
# Track frame offsets: 
#        150
#        11640
#        30520
#        40445
#        51980
#        61545
#        78795
#        91515
#        104900
#        116445
#        137100
#        146775
#        157405
#        167962
#        177722
#        191610
#        205552
#        216960
#        226857
#        238457
#        249017
#        260725
#        272977
#        284162
#
# Disc length: 3935 seconds
#
# Revision: 3
# Processed by: cddbd v1.5.2PL0 Copyright (c) Steve Scherf et al.
# Submitted via: ExactAudioCopy v0.99pb4
#
DISCID=6c0f5d18
DTITLE=Lonnie Mack - Memphis Wham!
DYEAR=1999
DGENRE=
TTITLE0=Memphis
TTITLE1=Where There's A Will There's A Way
TTITLE2=Wham!
TTITLE3=I'll Keep You Happy
TTITLE4=The Bounce
TTITLE5=Baby What's Wrong
TTITLE6=Down And Out
TTITLE7=Satisfied
TTITLE8=Suzie Q
TTITLE9=Why
TTITLE10=Down In The Dumps
TTITLE11=Rockin' Pneumonia And The Boogie Woogie Flu
TTITLE12=Gee Baby
TTITLE13=Chicken Pickin'
TTITLE14=Oh, I Apologize
TTITLE15=Say Something Nice To Me
TTITLE16=From Me To You
TTITLE17=Turn On Your Love Light
TTITLE18=The Freeze
TTITLE19=Farther On Up The Road
TTITLE20=Cry, Cry, Cry
TTITLE21=Save Your Money
TTITLE22=Tension (Part 1)
TTITLE23=Tension (Part 2)
EXTD=
EXTT0=
EXTT1=
EXTT2=
EXTT3=
EXTT4=
EXTT5=
EXTT6=
EXTT7=
EXTT8=
EXTT9=
EXTT10=
EXTT11=
EXTT12=
EXTT13=
EXTT14=
EXTT15=
EXTT16=
EXTT17=
EXTT18=
EXTT19=
EXTT20=
EXTT21=
EXTT22=
EXTT23=
PLAYORDER=
